<?xml version="1.0" ?><svg width="24" height="24"  id="Layer_1" style="enable-background:new 0 0 512 512;" version="1.1" viewBox="0 0 512 512" xml:space="preserve" xmlns="http://www.w3.org/2000/svg" xmlns:xlink="http://www.w3.org/1999/xlink"><style type="text/css">
	.st0{fill:#2BB673;}
	.st1{fill:#FFFFFF;}
	.st2{fill:#D1D3D4;}
</style><path class="st0" d="M489,256c0-128.7-104.3-233-233-233S23,127.3,23,256c0,112.3,79.5,206.1,185.3,228.1v-113  c-45.2-18.7-76.9-63.2-76.9-115.1c0-68.8,55.8-124.6,124.6-124.6S380.6,187.2,380.6,256c0,51.9-31.8,96.4-76.9,115.1v113  C409.5,462.1,489,368.3,489,256z" id="XMLID_116_"/><path class="st1" d="M380.6,256c0-68.8-55.8-124.6-124.6-124.6S131.4,187.2,131.4,256c0,51.9,31.8,96.4,76.9,115.1  v113c15.4,3.2,31.3,4.9,47.7,4.9s32.3-1.7,47.7-4.9v-113C348.8,352.4,380.6,307.9,380.6,256z" id="XMLID_115_"/><circle class="st2" cx="256" cy="256" id="XMLID_557_" r="79.7"/></svg>